<svg data-v-423bf9ae="" xmlns="http://www.w3.org/2000/svg" viewBox="0 0 399 90" class="iconLeftSlogan"><!----><!----><!----><g data-v-423bf9ae="" id="1533501e-afd1-4041-b854-5bc51dda5a91" fill="black" transform="matrix(2.255639065396315,0,0,2.255639065396315,109.99999549823025,-9.536743128535363e-7)"><path d="M11.58 13.87L11.58 13.97L11.58 13.97Q11.41 13.94 11.16 13.90L11.16 13.90L11.16 13.90Q10.95 13.87 10.64 13.85L10.64 13.85L10.64 13.85Q10.33 13.83 9.94 13.83L9.94 13.83L9.94 13.83Q9.53 13.83 9.23 13.85L9.23 13.85L9.23 13.85Q8.92 13.87 8.72 13.90L8.72 13.90L8.72 13.90Q8.48 13.94 8.32 13.97L8.32 13.97L8.32 13.83L8.86 13.75L8.86 13.75Q8.86 12.19 8.83 10.40L8.83 10.40L8.83 10.40Q8.81 8.86 8.75 6.86L8.75 6.86L8.75 6.86Q8.69 4.86 8.60 2.62L8.60 2.62L8.60 2.62Q8.44 3.36 8.18 4.50L8.18 4.50L8.18 4.50Q7.92 5.64 7.53 7.09L7.53 7.09L7.53 7.09Q7.13 8.54 6.59 10.23L6.59 10.23L6.59 10.23Q6.05 11.91 5.35 13.75L5.35 13.75L5.35 13.75Q5.10 13.22 4.82 12.43L4.82 12.43L4.82 12.43Q4.54 11.65 4.24 10.72L4.24 10.72L4.24 10.72Q3.93 9.79 3.63 8.76L3.63 8.76L3.63 8.76Q3.33 7.73 3.04 6.71L3.04 6.71L3.04 6.71Q2.76 5.68 2.48 4.71L2.48 4.71L2.48 4.71Q2.20 3.74 1.96 2.93L1.96 2.93L1.96 2.93Q1.92 3.74 1.91 4.64L1.91 4.64L1.91 4.64Q1.90 5.54 1.92 6.45L1.92 6.45L1.92 6.45Q1.93 7.36 1.96 8.26L1.96 8.26L1.96 8.26Q1.99 9.16 2.02 9.97L2.02 9.97L2.02 9.97Q2.09 11.87 2.21 13.75L2.21 13.75L3.08 13.83L3.08 14.01L3.08 14.01Q2.86 13.97 2.60 13.93L2.60 13.93L2.60 13.93Q2.39 13.90 2.11 13.87L2.11 13.87L2.11 13.87Q1.83 13.83 1.54 13.83L1.54 13.83L1.54 13.83Q1.16 13.83 0.88 13.85L0.88 13.85L0.88 13.85Q0.59 13.87 0.39 13.90L0.39 13.90L0.39 13.90Q0.15 13.94 0 13.97L0 13.97L0 13.83L0.67 13.75L0.67 13.75Q0.83 13.20 1.01 11.79L1.01 11.79L1.01 11.79Q1.09 11.19 1.18 10.33L1.18 10.33L1.18 10.33Q1.26 9.48 1.36 8.32L1.36 8.32L1.36 8.32Q1.46 7.17 1.55 5.69L1.55 5.69L1.55 5.69Q1.65 4.21 1.76 2.34L1.76 2.34L1.76 2.34Q1.44 1.41 1.23 0.85L1.23 0.85L1.23 0.85Q1.01 0.29 0.87 0.25L0.87 0.25L0.87 0.25Q0.56 0.20 0.49 0.15L0.49 0.15L0.49 0.15Q0.43 0.14 0.42 0.13L0.42 0.13L0.42 0L0.42 0Q0.62 0.04 0.83 0.07L0.83 0.07L0.83 0.07Q1.01 0.10 1.22 0.11L1.22 0.11L1.22 0.11Q1.43 0.13 1.62 0.13L1.62 0.13L1.62 0.13Q1.82 0.13 2.09 0.11L2.09 0.11L2.09 0.11Q2.35 0.10 2.59 0.07L2.59 0.07L2.59 0.07Q2.86 0.04 3.14 0L3.14 0L3.14 0Q3.22 0.59 3.38 1.39L3.38 1.39L3.38 1.39Q3.54 2.20 3.76 3.10L3.76 3.10L3.76 3.10Q3.98 4.00 4.22 4.96L4.22 4.96L4.22 4.96Q4.47 5.92 4.70 6.83L4.70 6.83L4.70 6.83Q5.26 8.97 5.94 11.30L5.94 11.30L5.94 11.30Q6.34 9.79 6.79 8.11L6.79 8.11L6.79 8.11Q7.17 6.66 7.63 4.87L7.63 4.87L7.63 4.87Q8.09 3.08 8.54 1.22L8.54 1.22L8.54 1.22Q8.51 0.90 8.50 0.59L8.50 0.59L8.50 0.59Q8.48 0.29 8.44 0L8.44 0L8.44 0Q8.53 0.04 8.68 0.07L8.68 0.07L8.68 0.07Q8.81 0.10 9.01 0.11L9.01 0.11L9.01 0.11Q9.21 0.13 9.49 0.13L9.49 0.13L9.49 0.13Q9.83 0.13 10.12 0.11L10.12 0.11L10.12 0.11Q10.40 0.10 10.60 0.07L10.60 0.07L10.60 0.07Q10.84 0.04 11.03 0L11.03 0L11.03 0.13L10.36 0.25L10.36 0.25Q10.28 0.94 10.26 1.88L10.26 1.88L10.26 1.88Q10.25 2.83 10.28 3.91L10.28 3.91L10.28 3.91Q10.30 4.98 10.37 6.13L10.37 6.13L10.37 6.13Q10.43 7.28 10.50 8.37L10.50 8.37L10.50 8.37Q10.67 10.93 10.95 13.75L10.95 13.75L11.58 13.87ZM17.89 12.49L17.89 12.49L17.89 12.49Q18.30 12.49 18.66 12.38L18.66 12.38L18.66 12.38Q19.01 12.28 19.28 12.14L19.28 12.14L19.28 12.14Q19.59 11.98 19.85 11.79L19.85 11.79L19.85 11.79Q19.47 12.42 18.94 12.91L18.94 12.91L18.94 12.91Q18.49 13.33 17.81 13.67L17.81 13.67L17.81 13.67Q17.14 14.01 16.24 14.01L16.24 14.01L16.24 14.01Q15.60 14.01 15.01 13.79L15.01 13.79L15.01 13.79Q14.42 13.57 13.96 13.15L13.96 13.15L13.96 13.15Q13.51 12.73 13.24 12.12L13.24 12.12L13.24 12.12Q12.98 11.51 12.98 10.75L12.98 10.75L12.98 10.75Q12.98 10.07 13.20 9.54L13.20 9.54L13.20 9.54Q13.41 9.02 13.76 8.62L13.76 8.62L13.76 8.62Q14.11 8.23 14.55 7.97L14.55 7.97L14.55 7.97Q14.98 7.71 15.40 7.55L15.40 7.55L15.40 7.55Q16.74 7 17.23 7L17.23 7L17.23 7Q17.75 7 18.14 7.17L18.14 7.17L18.14 7.17Q18.52 7.35 18.80 7.56L18.80 7.56L18.80 7.56Q19.11 7.81 19.35 8.12L19.35 8.12L14.73 9.98L14.73 9.98Q14.83 10.57 15.01 11.03L15.01 11.03L15.01 11.03Q15.19 11.49 15.54 11.82L15.54 11.82L15.54 11.82Q15.89 12.14 16.45 12.31L16.45 12.31L16.45 12.31Q17.01 12.49 17.89 12.49ZM15.62 7.81L15.62 7.81L15.62 7.81Q15.43 7.81 15.25 7.92L15.25 7.92L15.25 7.92Q15.06 8.02 14.92 8.19L14.92 8.19L14.92 8.19Q14.77 8.36 14.69 8.57L14.69 8.57L14.69 8.57Q14.62 8.78 14.63 8.99L14.63 8.99L14.63 8.99Q14.63 9.21 14.64 9.42L14.64 9.42L14.64 9.42Q14.64 9.63 14.69 9.84L14.69 9.84L17.04 8.76L17.04 8.76Q16.90 8.50 16.69 8.29L16.69 8.29L16.69 8.29Q16.51 8.11 16.24 7.96L16.24 7.96L16.24 7.96Q15.97 7.81 15.62 7.81ZM26.17 12.49L26.17 12.49L26.17 12.49Q26.57 12.49 26.93 12.38L26.93 12.38L26.93 12.38Q27.29 12.28 27.55 12.14L27.55 12.14L27.55 12.14Q27.86 11.98 28.13 11.79L28.13 11.79L28.13 11.79Q27.75 12.42 27.22 12.91L27.22 12.91L27.22 12.91Q26.77 13.33 26.09 13.67L26.09 13.67L26.09 13.67Q25.41 14.01 24.51 14.01L24.51 14.01L24.51 14.01Q23.87 14.01 23.28 13.79L23.28 13.79L23.28 13.79Q22.69 13.57 22.24 13.15L22.24 13.15L22.24 13.15Q21.78 12.73 21.52 12.12L21.52 12.12L21.52 12.12Q21.25 11.51 21.25 10.75L21.25 10.75L21.25 10.75Q21.25 10.07 21.47 9.54L21.47 9.54L21.47 9.54Q21.69 9.02 22.04 8.62L22.04 8.62L22.04 8.62Q22.39 8.23 22.82 7.97L22.82 7.97L22.82 7.97Q23.25 7.71 23.67 7.55L23.67 7.55L23.67 7.55Q25.02 7 25.51 7L25.51 7L25.51 7Q26.03 7 26.41 7.17L26.41 7.17L26.41 7.17Q26.80 7.35 27.08 7.56L27.08 7.56L27.08 7.56Q27.38 7.81 27.62 8.12L27.62 8.12L23.00 9.98L23.00 9.98Q23.10 10.57 23.28 11.03L23.28 11.03L23.28 11.03Q23.46 11.49 23.81 11.82L23.81 11.82L23.81 11.82Q24.16 12.14 24.72 12.31L24.72 12.31L24.72 12.31Q25.28 12.49 26.17 12.49ZM23.90 7.81L23.90 7.81L23.90 7.81Q23.70 7.81 23.52 7.92L23.52 7.92L23.52 7.92Q23.34 8.02 23.19 8.19L23.19 8.19L23.19 8.19Q23.04 8.36 22.97 8.57L22.97 8.57L22.97 8.57Q22.89 8.78 22.90 8.99L22.90 8.99L22.90 8.99Q22.90 9.21 22.91 9.42L22.91 9.42L22.91 9.42Q22.92 9.63 22.96 9.84L22.96 9.84L25.31 8.76L25.31 8.76Q25.17 8.50 24.96 8.29L24.96 8.29L24.96 8.29Q24.78 8.11 24.51 7.96L24.51 7.96L24.51 7.96Q24.25 7.81 23.90 7.81ZM30.73 5.73L30.73 5.73L30.73 5.73Q31.18 5.54 31.63 5.26L31.63 5.26L31.63 5.26Q32.07 4.98 32.58 4.66L32.58 4.66L32.58 4.66Q32.51 4.91 32.45 5.28L32.45 5.28L32.45 5.28Q32.40 5.64 32.35 6.01L32.35 6.01L32.35 6.01Q32.31 6.38 32.28 6.69L32.28 6.69L32.28 6.69Q32.26 7 32.26 7.14L32.26 7.14L32.26 7.14Q32.82 7.29 33.40 7.27L33.40 7.27L33.40 7.27Q33.98 7.24 34.34 7.24L34.34 7.24L34.34 7.24Q34.16 7.41 33.89 7.52L33.89 7.52L33.89 7.52Q33.61 7.64 33.32 7.74L33.32 7.74L33.32 7.74Q33.03 7.84 32.74 7.91L32.74 7.91L32.74 7.91Q32.45 7.98 32.24 8.04L32.24 8.04L32.24 8.04Q32.27 8.55 32.24 9.09L32.24 9.09L32.24 9.09Q32.20 9.62 32.20 10.12L32.20 10.12L32.20 10.12Q32.20 10.61 32.28 11.05L32.28 11.05L32.28 11.05Q32.37 11.49 32.63 11.83L32.63 11.83L32.63 11.83Q32.89 12.17 33.37 12.38L33.37 12.38L33.37 12.38Q33.85 12.60 34.66 12.64L34.66 12.64L34.66 12.64Q34.43 12.84 34.19 13.08L34.19 13.08L34.19 13.08Q33.95 13.31 33.70 13.52L33.70 13.52L33.70 13.52Q33.45 13.72 33.18 13.85L33.18 13.85L33.18 13.85Q32.91 13.99 32.63 13.99L32.63 13.99L32.63 13.99Q32.35 13.99 32.07 13.88L32.07 13.88L32.07 13.88Q31.78 13.78 31.55 13.56L31.55 13.56L31.55 13.56Q31.32 13.34 31.16 13.01L31.16 13.01L31.16 13.01Q31.00 12.68 30.98 12.24L30.98 12.24L30.98 12.24Q30.93 11.12 30.90 10.01L30.90 10.01L30.90 10.01Q30.87 8.90 30.87 8.01L30.87 8.01L30.87 8.01Q30.51 7.98 30.26 7.95L30.26 7.95L30.26 7.95Q30.02 7.91 29.85 7.88L29.85 7.88L29.85 7.88Q29.65 7.85 29.53 7.83L29.53 7.83L29.53 7.83Q29.72 7.74 29.95 7.64L29.95 7.64L29.95 7.64Q30.13 7.56 30.35 7.45L30.35 7.45L30.35 7.45Q30.58 7.34 30.79 7.18L30.79 7.18L30.79 7.18Q30.83 6.75 30.82 6.40L30.82 6.40L30.82 6.40Q30.81 6.05 30.73 5.73ZM38.05 5.24L38.05 5.24L38.05 5.24Q37.87 5.38 37.69 5.53L37.69 5.53L37.69 5.53Q37.53 5.67 37.34 5.85L37.34 5.85L37.34 5.85Q37.16 6.03 37.00 6.23L37.00 6.23L37.00 6.23Q36.85 5.98 36.68 5.80L36.68 5.80L36.68 5.80Q36.51 5.61 36.36 5.49L36.36 5.49L36.36 5.49Q36.19 5.33 36.02 5.24L36.02 5.24L36.02 5.24Q36.20 5.10 36.37 4.94L36.37 4.94L36.37 4.94Q36.53 4.80 36.69 4.62L36.69 4.62L36.69 4.62Q36.86 4.44 37.00 4.23L37.00 4.23L37.00 4.23Q37.16 4.47 37.34 4.65L37.34 4.65L37.34 4.65Q37.52 4.84 37.67 4.97L37.67 4.97L37.67 4.97Q37.86 5.12 38.05 5.24ZM35.80 8.12L35.80 8.12L35.80 8.12Q36.13 7.98 36.44 7.88L36.44 7.88L36.44 7.88Q36.74 7.77 37.01 7.65L37.01 7.65L37.01 7.65Q37.28 7.53 37.54 7.38L37.54 7.38L37.54 7.38Q37.80 7.24 38.05 7.01L38.05 7.01L38.05 7.01Q38.16 7.39 38.15 7.93L38.15 7.93L38.15 7.93Q38.14 8.47 38.09 9.06L38.09 9.06L38.09 9.06Q38.04 9.66 38.02 10.26L38.02 10.26L38.02 10.26Q38.01 10.86 38.13 11.35L38.13 11.35L38.13 11.35Q38.25 11.84 38.55 12.17L38.55 12.17L38.55 12.17Q38.85 12.50 39.45 12.56L39.45 12.56L39.45 12.56Q38.85 12.95 38.42 13.30L38.42 13.30L38.42 13.30Q38.00 13.65 37.58 14.01L37.58 14.01L37.58 14.01Q37.45 13.96 37.30 13.89L37.30 13.89L37.30 13.89Q37.14 13.82 37.00 13.69L37.00 13.69L37.00 13.69Q36.86 13.55 36.76 13.35L36.76 13.35L36.76 13.35Q36.65 13.15 36.64 12.82L36.64 12.82L36.64 12.82Q36.65 11.87 36.68 11.01L36.68 11.01L36.68 11.01Q36.71 10.15 36.65 9.50L36.65 9.50L36.65 9.50Q36.60 8.85 36.41 8.48L36.41 8.48L36.41 8.48Q36.22 8.11 35.80 8.12ZM48.26 10.01L48.26 10.01L48.26 10.01Q48.26 11.00 47.93 11.75L47.93 11.75L47.93 11.75Q47.60 12.50 47.21 13.01L47.21 13.01L47.21 13.01Q46.75 13.59 46.16 14.01L46.16 14.01L46.16 14.01Q46.38 13.66 46.56 13.24L46.56 13.24L46.56 13.24Q46.72 12.88 46.84 12.42L46.84 12.42L46.84 12.42Q46.97 11.96 46.97 11.44L46.97 11.44L46.97 11.44Q46.97 10.81 46.72 10.22L46.72 10.22L46.72 10.22Q46.47 9.63 46.05 9.18L46.05 9.18L46.05 9.18Q45.63 8.72 45.07 8.44L45.07 8.44L45.07 8.44Q44.52 8.16 43.92 8.16L43.92 8.16L43.92 8.16Q43.62 8.16 43.34 8.23L43.34 8.23L43.34 8.23Q43.06 8.30 42.88 8.48L42.88 8.48L42.88 8.48Q42.88 8.78 42.86 9.27L42.86 9.27L42.86 9.27Q42.84 9.77 42.84 10.42L42.84 10.42L42.84 10.42Q42.84 11.06 42.88 11.82L42.88 11.82L42.88 11.82Q42.91 12.57 43.04 13.38L43.04 13.38L43.04 13.38Q42.55 13.38 42.06 13.58L42.06 13.58L42.06 13.58Q41.58 13.78 41.29 14.01L41.29 14.01L41.29 14.01Q41.30 13.75 41.33 13.24L41.33 13.24L41.33 13.24Q41.36 12.73 41.37 12.10L41.37 12.10L41.37 12.10Q41.38 11.48 41.38 10.82L41.38 10.82L41.38 10.82Q41.37 10.16 41.31 9.61L41.31 9.61L41.31 9.61Q41.26 9.06 41.15 8.68L41.15 8.68L41.15 8.68Q41.05 8.30 40.87 8.25L40.87 8.25L40.87 8.25Q40.63 8.15 40.39 8.15L40.39 8.15L40.39 8.15Q40.26 8.15 40.15 8.16L40.15 8.16L40.15 8.16Q40.63 7.85 41.06 7.60L41.06 7.60L41.06 7.60Q41.43 7.39 41.80 7.22L41.80 7.22L41.80 7.22Q42.18 7.04 42.39 7.04L42.39 7.04L42.39 7.04Q42.57 7.04 42.67 7.07L42.67 7.07L42.67 7.07Q42.77 7.10 42.82 7.21L42.82 7.21L42.82 7.21Q42.87 7.32 42.88 7.55L42.88 7.55L42.88 7.55Q42.88 7.77 42.88 8.16L42.88 8.16L42.88 8.16Q43.48 7.62 44.16 7.33L44.16 7.33L44.16 7.33Q44.84 7.04 45.44 7.04L45.44 7.04L45.44 7.04Q46.07 7.04 46.59 7.29L46.59 7.29L46.59 7.29Q47.11 7.55 47.48 7.96L47.48 7.96L47.48 7.96Q47.85 8.37 48.06 8.90L48.06 8.90L48.06 8.90Q48.26 9.44 48.26 10.01ZM54.17 11.66L54.17 11.66L54.17 11.66Q54.00 11.77 53.79 11.98L53.79 11.98L53.79 11.98Q53.58 12.19 53.33 12.40L53.33 12.40L53.33 12.40Q53.07 12.60 52.77 12.75L52.77 12.75L52.77 12.75Q52.46 12.91 52.11 12.91L52.11 12.91L52.11 12.91Q51.72 12.91 51.30 12.71L51.30 12.71L51.30 12.71Q50.88 12.52 50.53 12.17L50.53 12.17L50.53 12.17Q50.18 11.83 49.95 11.35L49.95 11.35L49.95 11.35Q49.73 10.88 49.73 10.32L49.73 10.32L49.73 10.32Q49.73 9.86 49.90 9.48L49.90 9.48L49.90 9.48Q50.06 9.11 50.33 8.82L50.33 8.82L50.33 8.82Q50.60 8.53 50.94 8.27L50.94 8.27L50.94 8.27Q51.28 8.02 51.65 7.78L51.65 7.78L51.65 7.78Q52.22 7.42 52.70 7.21L52.70 7.21L52.70 7.21Q53.17 7 53.49 7L53.49 7L53.49 7Q53.89 7 54.31 7.13L54.31 7.13L54.31 7.13Q54.74 7.27 55.22 7.38L55.22 7.38L55.22 7.38Q55.71 7.49 56.24 7.50L56.24 7.50L56.24 7.50Q56.77 7.52 57.36 7.29L57.36 7.29L57.36 7.29Q57.16 7.49 56.95 7.60L56.95 7.60L56.95 7.60Q56.74 7.71 56.53 7.80L56.53 7.80L56.53 7.80Q56.32 7.88 56.12 7.97L56.12 7.97L56.12 7.97Q55.92 8.05 55.72 8.19L55.72 8.19L55.72 8.19Q55.57 9.67 55.69 10.87L55.69 10.87L55.69 10.87Q55.80 12.07 56.11 13.05L56.11 13.05L56.11 13.05Q56.41 14.03 56.84 14.83L56.84 14.83L56.84 14.83Q57.27 15.62 57.75 16.32L57.75 16.32L57.75 16.32Q58.23 17.01 58.70 17.63L58.70 17.63L58.70 17.63Q59.16 18.26 59.54 18.88L59.54 18.88L59.54 18.88Q59.92 19.50 60.15 20.15L60.15 20.15L60.15 20.15Q60.38 20.80 60.38 21.57L60.38 21.57L60.38 21.57Q60.38 22.51 59.95 23.41L59.95 23.41L59.95 23.41Q59.53 24.32 58.72 25.02L58.72 25.02L58.72 25.02Q57.92 25.73 56.76 26.17L56.76 26.17L56.76 26.17Q55.61 26.60 54.17 26.60L54.17 26.60L54.17 26.60Q52.99 26.60 52.15 26.40L52.15 26.40L52.15 26.40Q51.31 26.19 50.75 25.94L50.75 25.94L50.75 25.94Q50.09 25.65 49.66 25.27L49.66 25.27L49.66 25.27Q50.16 25.61 50.83 25.86L50.83 25.86L50.83 25.86Q51.42 26.08 52.25 26.26L52.25 26.26L52.25 26.26Q53.07 26.45 54.17 26.45L54.17 26.45L54.17 26.45Q55.09 26.45 55.98 26.24L55.98 26.24L55.98 26.24Q56.87 26.04 57.57 25.60L57.57 25.60L57.57 25.60Q58.27 25.16 58.70 24.46L58.70 24.46L58.70 24.46Q59.14 23.76 59.14 22.76L59.14 22.76L59.14 22.76Q59.14 21.97 58.81 21.27L58.81 21.27L58.81 21.27Q58.48 20.57 57.97 19.86L57.97 19.86L57.97 19.86Q57.46 19.15 56.85 18.37L56.85 18.37L56.85 18.37Q56.24 17.58 55.69 16.62L55.69 16.62L55.69 16.62Q55.13 15.65 54.71 14.44L54.71 14.44L54.71 14.44Q54.29 13.23 54.17 11.66ZM54.10 10.47L54.10 10.47L54.10 10.47Q54.10 9.81 54.13 9.36L54.13 9.36L54.13 9.36Q54.17 8.90 54.39 8.41L54.39 8.41L54.39 8.41Q54.22 8.33 53.93 8.24L53.93 8.24L53.93 8.24Q53.63 8.15 53.28 8.09L53.28 8.09L53.28 8.09Q52.92 8.02 52.52 8.00L52.52 8.00L52.52 8.00Q52.12 7.98 51.73 8.04L51.73 8.04L51.73 8.04Q51.39 8.15 51.27 8.44L51.27 8.44L51.27 8.44Q51.14 8.74 51.14 9.07L51.14 9.07L51.14 9.07Q51.14 9.81 51.46 10.34L51.46 10.34L51.46 10.34Q51.77 10.86 52.23 11.17L52.23 11.17L52.23 11.17Q52.70 11.48 53.22 11.56L53.22 11.56L53.22 11.56Q53.75 11.65 54.17 11.51L54.17 11.51L54.17 11.51Q54.17 11.28 54.13 11.02L54.13 11.02L54.13 11.02Q54.10 10.75 54.10 10.47ZM59.33 5.94L59.33 5.94L59.33 5.94Q59.33 4.86 59.26 3.84L59.26 3.84L59.26 3.84Q59.19 2.83 59.12 2.03L59.12 2.03L59.12 2.03Q59.02 1.09 58.91 0.27L58.91 0.27L58.14 0.14L58.14 0L58.14 0Q58.37 0.04 58.65 0.07L58.65 0.07L58.65 0.07Q58.88 0.10 59.21 0.12L59.21 0.12L59.21 0.12Q59.54 0.14 59.95 0.14L59.95 0.14L59.95 0.14Q60.40 0.14 60.73 0.12L60.73 0.12L60.73 0.12Q61.05 0.10 61.28 0.07L61.28 0.07L61.28 0.07Q61.53 0.04 61.71 0L61.71 0L61.71 0.14L61.00 0.27L61.00 0.27Q60.91 1.02 60.86 1.90L60.86 1.90L60.86 1.90Q60.80 2.66 60.77 3.65L60.77 3.65L60.77 3.65Q60.73 4.65 60.73 5.75L60.73 5.75L60.73 5.75Q60.73 7.17 60.80 8.58L60.80 8.58L60.80 8.58Q60.86 10.00 60.93 11.14L60.93 11.14L60.93 11.14Q61.01 12.49 61.14 13.72L61.14 13.72L61.89 13.86L61.89 13.99L61.89 13.99Q61.67 13.96 61.38 13.93L61.38 13.93L61.38 13.93Q61.12 13.90 60.77 13.88L60.77 13.88L60.77 13.88Q60.41 13.86 59.95 13.86L59.95 13.86L59.95 13.86Q59.49 13.86 59.16 13.88L59.16 13.88L59.16 13.88Q58.83 13.90 58.62 13.93L58.62 13.93L58.62 13.93Q58.37 13.96 58.23 13.99L58.23 13.99L58.23 13.85L58.83 13.76L58.83 13.76Q58.97 12.82 59.08 11.62L59.08 11.62L59.08 11.62Q59.18 10.58 59.26 9.15L59.26 9.15L59.26 9.15Q59.33 7.71 59.33 5.94ZM70.70 10.01L70.70 10.01L70.70 10.01Q70.70 11.00 70.37 11.75L70.37 11.75L70.37 11.75Q70.04 12.50 69.65 13.01L69.65 13.01L69.65 13.01Q69.19 13.59 68.60 14.01L68.60 14.01L68.60 14.01Q68.82 13.66 69.01 13.24L69.01 13.24L69.01 13.24Q69.16 12.88 69.29 12.42L69.29 12.42L69.29 12.42Q69.41 11.96 69.41 11.44L69.41 11.44L69.41 11.44Q69.41 10.81 69.16 10.22L69.16 10.22L69.16 10.22Q68.91 9.63 68.49 9.18L68.49 9.18L68.49 9.18Q68.07 8.72 67.52 8.44L67.52 8.44L67.52 8.44Q66.96 8.16 66.36 8.16L66.36 8.16L66.36 8.16Q66.07 8.16 65.79 8.23L65.79 8.23L65.79 8.23Q65.51 8.30 65.32 8.48L65.32 8.48L65.32 8.48Q65.32 8.78 65.30 9.27L65.30 9.27L65.30 9.27Q65.28 9.77 65.28 10.42L65.28 10.42L65.28 10.42Q65.28 11.06 65.32 11.82L65.32 11.82L65.32 11.82Q65.35 12.57 65.48 13.38L65.48 13.38L65.48 13.38Q64.99 13.38 64.51 13.58L64.51 13.58L64.51 13.58Q64.02 13.78 63.73 14.01L63.73 14.01L63.73 14.01Q63.74 13.75 63.77 13.24L63.77 13.24L63.77 13.24Q63.80 12.73 63.81 12.10L63.81 12.10L63.81 12.10Q63.83 11.48 63.82 10.82L63.82 10.82L63.82 10.82Q63.81 10.16 63.76 9.61L63.76 9.61L63.76 9.61Q63.70 9.06 63.60 8.68L63.60 8.68L63.60 8.68Q63.49 8.30 63.31 8.25L63.31 8.25L63.31 8.25Q63.07 8.15 62.83 8.15L62.83 8.15L62.83 8.15Q62.71 8.15 62.59 8.16L62.59 8.16L62.59 8.16Q63.07 7.85 63.50 7.60L63.50 7.60L63.50 7.60Q63.87 7.39 64.25 7.22L64.25 7.22L64.25 7.22Q64.62 7.04 64.83 7.04L64.83 7.04L64.83 7.04Q65.02 7.04 65.11 7.07L65.11 7.07L65.11 7.07Q65.21 7.10 65.26 7.21L65.26 7.21L65.26 7.21Q65.31 7.32 65.32 7.55L65.32 7.55L65.32 7.55Q65.32 7.77 65.32 8.16L65.32 8.16L65.32 8.16Q65.93 7.62 66.61 7.33L66.61 7.33L66.61 7.33Q67.28 7.04 67.89 7.04L67.89 7.04L67.89 7.04Q68.52 7.04 69.03 7.29L69.03 7.29L69.03 7.29Q69.55 7.55 69.92 7.96L69.92 7.96L69.92 7.96Q70.29 8.37 70.50 8.90L70.50 8.90L70.50 8.90Q70.70 9.44 70.70 10.01ZM72.18 8.26L72.18 8.26L72.18 8.26Q72.09 8.23 72.01 8.21L72.01 8.21L72.01 8.21Q71.93 8.19 71.88 8.16L71.88 8.16L71.88 8.16Q71.82 8.15 71.76 8.13L71.76 8.13L71.76 8.13Q71.71 8.13 71.87 8.06L71.87 8.06L71.87 8.06Q72.03 7.98 72.29 7.83L72.29 7.83L72.29 7.83Q72.55 7.69 72.84 7.48L72.84 7.48L72.84 7.48Q73.14 7.27 73.35 6.99L73.35 6.99L73.35 6.99Q73.53 7.48 73.79 7.96L73.79 7.96L73.79 7.96Q74.06 8.44 74.38 8.99L74.38 8.99L74.38 8.99Q74.76 8.54 75.19 8.17L75.19 8.17L75.19 8.17Q75.63 7.80 76.03 7.54L76.03 7.54L76.03 7.54Q76.44 7.28 76.80 7.13L76.80 7.13L76.80 7.13Q77.17 6.99 77.41 6.99L77.41 6.99L77.41 6.99Q77.70 6.99 78.01 7.07L78.01 7.07L78.01 7.07Q78.32 7.15 78.58 7.28L78.58 7.28L78.58 7.28Q78.85 7.41 79.07 7.56L79.07 7.56L79.07 7.56Q79.28 7.71 79.39 7.87L79.39 7.87L79.39 7.87Q79.38 8.11 79.15 8.56L79.15 8.56L79.15 8.56Q78.92 9.02 78.57 9.59L78.57 9.59L78.57 9.59Q78.22 10.16 77.79 10.81L77.79 10.81L77.79 10.81Q77.36 11.45 76.94 12.05L76.94 12.05L76.94 12.05Q76.52 12.66 76.15 13.17L76.15 13.17L76.15 13.17Q75.78 13.68 75.54 14L75.54 14L75.54 14Q75.38 13.61 75.09 13.03L75.09 13.03L75.09 13.03Q74.80 12.46 74.45 11.83L74.45 11.83L74.45 11.83Q74.10 11.20 73.74 10.57L73.74 10.57L73.74 10.57Q73.37 9.94 73.05 9.44L73.05 9.44L73.05 9.44Q72.73 8.93 72.50 8.61L72.50 8.61L72.50 8.61Q72.27 8.29 72.18 8.26ZM76.29 7.80L76.29 7.80L76.29 7.80Q76.12 7.80 75.88 7.94L75.88 7.94L75.88 7.94Q75.64 8.08 75.39 8.29L75.39 8.29L75.39 8.29Q75.14 8.50 74.91 8.74L74.91 8.74L74.91 8.74Q74.69 8.97 74.54 9.16L74.54 9.16L74.54 9.16Q75.01 9.98 75.43 10.77L75.43 10.77L75.43 10.77Q75.85 11.55 76.45 12.33L76.45 12.33L76.45 12.33Q76.80 11.94 77.12 11.45L77.12 11.45L77.12 11.45Q77.43 10.95 77.64 10.46L77.64 10.46L77.64 10.46Q77.85 9.97 77.93 9.53L77.93 9.53L77.93 9.53Q78.01 9.09 77.88 8.81L77.88 8.81L77.88 8.81Q77.83 8.64 77.69 8.46L77.69 8.46L77.69 8.46Q77.55 8.27 77.34 8.13L77.34 8.13L77.34 8.13Q77.13 7.98 76.86 7.89L76.86 7.89L76.86 7.89Q76.59 7.80 76.29 7.80ZM83.05 5.24L83.05 5.24L83.05 5.24Q82.87 5.38 82.68 5.53L82.68 5.53L82.68 5.53Q82.53 5.67 82.34 5.85L82.34 5.85L82.34 5.85Q82.15 6.03 82.00 6.23L82.00 6.23L82.00 6.23Q81.84 5.98 81.68 5.80L81.68 5.80L81.68 5.80Q81.51 5.61 81.35 5.49L81.35 5.49L81.35 5.49Q81.19 5.33 81.02 5.24L81.02 5.24L81.02 5.24Q81.20 5.10 81.37 4.94L81.37 4.94L81.37 4.94Q81.52 4.80 81.69 4.62L81.69 4.62L81.69 4.62Q81.86 4.44 82.00 4.23L82.00 4.23L82.00 4.23Q82.15 4.47 82.33 4.65L82.33 4.65L82.33 4.65Q82.52 4.84 82.67 4.97L82.67 4.97L82.67 4.97Q82.85 5.12 83.05 5.24ZM80.79 8.12L80.79 8.12L80.79 8.12Q81.13 7.98 81.43 7.88L81.43 7.88L81.43 7.88Q81.73 7.77 82.01 7.65L82.01 7.65L82.01 7.65Q82.28 7.53 82.54 7.38L82.54 7.38L82.54 7.38Q82.80 7.24 83.05 7.01L83.05 7.01L83.05 7.01Q83.16 7.39 83.15 7.93L83.15 7.93L83.15 7.93Q83.13 8.47 83.08 9.06L83.08 9.06L83.08 9.06Q83.03 9.66 83.02 10.26L83.02 10.26L83.02 10.26Q83.01 10.86 83.13 11.35L83.13 11.35L83.13 11.35Q83.24 11.84 83.55 12.17L83.55 12.17L83.55 12.17Q83.85 12.50 84.45 12.56L84.45 12.56L84.45 12.56Q83.85 12.95 83.42 13.30L83.42 13.30L83.42 13.30Q82.99 13.65 82.57 14.01L82.57 14.01L82.57 14.01Q82.45 13.96 82.29 13.89L82.29 13.89L82.29 13.89Q82.14 13.82 82.00 13.69L82.00 13.69L82.00 13.69Q81.86 13.55 81.75 13.35L81.75 13.35L81.75 13.35Q81.65 13.15 81.63 12.82L81.63 12.82L81.63 12.82Q81.65 11.87 81.68 11.01L81.68 11.01L81.68 11.01Q81.70 10.15 81.65 9.50L81.65 9.50L81.65 9.50Q81.59 8.85 81.40 8.48L81.40 8.48L81.40 8.48Q81.21 8.11 80.79 8.12ZM87.05 5.73L87.05 5.73L87.05 5.73Q87.50 5.54 87.95 5.26L87.95 5.26L87.95 5.26Q88.40 4.98 88.90 4.66L88.90 4.66L88.90 4.66Q88.83 4.91 88.77 5.28L88.77 5.28L88.77 5.28Q88.72 5.64 88.68 6.01L88.68 6.01L88.68 6.01Q88.63 6.38 88.61 6.69L88.61 6.69L88.61 6.69Q88.58 7 88.58 7.14L88.58 7.14L88.58 7.14Q89.14 7.29 89.72 7.27L89.72 7.27L89.72 7.27Q90.30 7.24 90.66 7.24L90.66 7.24L90.66 7.24Q90.48 7.41 90.21 7.52L90.21 7.52L90.21 7.52Q89.94 7.64 89.64 7.74L89.64 7.74L89.64 7.74Q89.35 7.84 89.06 7.91L89.06 7.91L89.06 7.91Q88.77 7.98 88.56 8.04L88.56 8.04L88.56 8.04Q88.59 8.55 88.56 9.09L88.56 9.09L88.56 9.09Q88.52 9.62 88.52 10.12L88.52 10.12L88.52 10.12Q88.52 10.61 88.61 11.05L88.61 11.05L88.61 11.05Q88.69 11.49 88.95 11.83L88.95 11.83L88.95 11.83Q89.21 12.17 89.69 12.38L89.69 12.38L89.69 12.38Q90.17 12.60 90.99 12.64L90.99 12.64L90.99 12.64Q90.75 12.84 90.51 13.08L90.51 13.08L90.51 13.08Q90.27 13.31 90.02 13.52L90.02 13.52L90.02 13.52Q89.77 13.72 89.50 13.85L89.50 13.85L89.50 13.85Q89.24 13.99 88.96 13.99L88.96 13.99L88.96 13.99Q88.68 13.99 88.39 13.88L88.39 13.88L88.39 13.88Q88.10 13.78 87.87 13.56L87.87 13.56L87.87 13.56Q87.64 13.34 87.48 13.01L87.48 13.01L87.48 13.01Q87.32 12.68 87.30 12.24L87.30 12.24L87.30 12.24Q87.25 11.12 87.22 10.01L87.22 10.01L87.22 10.01Q87.19 8.90 87.19 8.01L87.19 8.01L87.19 8.01Q86.83 7.98 86.58 7.95L86.58 7.95L86.58 7.95Q86.34 7.91 86.17 7.88L86.17 7.88L86.17 7.88Q85.97 7.85 85.85 7.83L85.85 7.83L85.85 7.83Q86.04 7.74 86.27 7.64L86.27 7.64L86.27 7.64Q86.45 7.56 86.67 7.45L86.67 7.45L86.67 7.45Q86.90 7.34 87.11 7.18L87.11 7.18L87.11 7.18Q87.15 6.75 87.14 6.40L87.14 6.40L87.14 6.40Q87.14 6.05 87.05 5.73ZM98.29 9.52L98.29 9.52L98.29 9.52Q98.41 9.79 98.62 10.30L98.62 10.30L98.62 10.30Q98.83 10.82 99.06 11.35L99.06 11.35L99.06 11.35Q99.29 11.89 99.51 12.29L99.51 12.29L99.51 12.29Q99.74 12.70 99.89 12.73L99.89 12.73L99.89 12.73Q99.47 12.96 99.02 13.30L99.02 13.30L99.02 13.30Q98.56 13.64 98.22 14L98.22 14L98.22 14Q98.15 13.69 97.97 13.14L97.97 13.14L97.97 13.14Q97.79 12.59 97.48 11.93L97.48 11.93L97.48 11.93Q97.22 12.19 96.81 12.55L96.81 12.55L96.81 12.55Q96.40 12.91 95.94 13.23L95.94 13.23L95.94 13.23Q95.48 13.55 94.98 13.78L94.98 13.78L94.98 13.78Q94.49 14 94.04 14L94.04 14L94.04 14Q93.72 14 93.37 13.91L93.37 13.91L93.37 13.91Q93.03 13.82 92.75 13.64L92.75 13.64L92.75 13.64Q92.47 13.47 92.30 13.22L92.30 13.22L92.30 13.22Q92.12 12.96 92.12 12.64L92.12 12.64L92.12 12.64Q92.12 12.25 92.53 11.80L92.53 11.80L92.53 11.80Q92.93 11.35 93.53 10.91L93.53 10.91L93.53 10.91Q94.14 10.47 94.84 10.05L94.84 10.05L94.84 10.05Q95.54 9.63 96.12 9.27L96.12 9.27L96.12 9.27Q95.69 8.72 95.31 8.48L95.31 8.48L95.31 8.48Q94.92 8.23 94.46 8.23L94.46 8.23L94.46 8.23Q94.26 8.23 93.95 8.34L93.95 8.34L93.95 8.34Q93.63 8.46 93.34 8.60L93.34 8.60L93.34 8.60Q92.97 8.75 92.61 8.95L92.61 8.95L92.61 8.95Q93.39 8.41 94.12 7.98L94.12 7.98L94.12 7.98Q94.43 7.80 94.75 7.63L94.75 7.63L94.75 7.63Q95.07 7.46 95.38 7.32L95.38 7.32L95.38 7.32Q95.68 7.18 95.94 7.10L95.94 7.10L95.94 7.10Q96.19 7.01 96.38 7.01L96.38 7.01L96.38 7.01Q96.73 7.01 97.03 7.31L97.03 7.31L97.03 7.31Q97.33 7.62 97.57 8.03L97.57 8.03L97.57 8.03Q97.82 8.44 97.99 8.86L97.99 8.86L97.99 8.86Q98.17 9.28 98.29 9.52ZM95.55 12.64L95.55 12.64L95.55 12.64Q95.89 12.64 96.19 12.54L96.19 12.54L96.19 12.54Q96.50 12.45 96.73 12.26L96.73 12.26L96.73 12.26Q96.96 12.08 97.10 11.83L97.10 11.83L97.10 11.83Q97.24 11.58 97.24 11.28L97.24 11.28L97.24 11.28Q97.13 11.10 97.01 10.88L97.01 10.88L97.01 10.88Q96.88 10.67 96.77 10.47L96.77 10.47L96.77 10.47Q96.66 10.22 96.54 9.99L96.54 9.99L96.54 9.99Q96.42 9.76 96.29 9.60L96.29 9.60L96.29 9.60Q95.98 9.72 95.54 9.92L95.54 9.92L95.54 9.92Q95.10 10.12 94.70 10.39L94.70 10.39L94.70 10.39Q94.29 10.67 94.00 10.99L94.00 10.99L94.00 10.99Q93.72 11.31 93.72 11.66L93.72 11.66L93.72 11.66Q93.72 11.86 93.86 12.03L93.86 12.03L93.86 12.03Q94.01 12.21 94.26 12.34L94.26 12.34L94.26 12.34Q94.50 12.47 94.84 12.56L94.84 12.56L94.84 12.56Q95.17 12.64 95.55 12.64ZM101.79 5.73L101.79 5.73L101.79 5.73Q102.24 5.54 102.69 5.26L102.69 5.26L102.69 5.26Q103.14 4.98 103.64 4.66L103.64 4.66L103.64 4.66Q103.57 4.91 103.52 5.28L103.52 5.28L103.52 5.28Q103.46 5.64 103.42 6.01L103.42 6.01L103.42 6.01Q103.38 6.38 103.35 6.69L103.35 6.69L103.35 6.69Q103.32 7 103.32 7.14L103.32 7.14L103.32 7.14Q103.88 7.29 104.46 7.27L104.46 7.27L104.46 7.27Q105.04 7.24 105.41 7.24L105.41 7.24L105.41 7.24Q105.22 7.41 104.95 7.52L104.95 7.52L104.95 7.52Q104.68 7.64 104.38 7.74L104.38 7.74L104.38 7.74Q104.09 7.84 103.80 7.91L103.80 7.91L103.80 7.91Q103.52 7.98 103.31 8.04L103.31 8.04L103.31 8.04Q103.33 8.55 103.30 9.09L103.30 9.09L103.30 9.09Q103.26 9.62 103.26 10.12L103.26 10.12L103.26 10.12Q103.26 10.61 103.35 11.05L103.35 11.05L103.35 11.05Q103.43 11.49 103.69 11.83L103.69 11.83L103.69 11.83Q103.95 12.17 104.43 12.38L104.43 12.38L104.43 12.38Q104.92 12.60 105.73 12.64L105.73 12.64L105.73 12.64Q105.49 12.84 105.25 13.08L105.25 13.08L105.25 13.08Q105.01 13.31 104.76 13.52L104.76 13.52L104.76 13.52Q104.51 13.72 104.24 13.85L104.24 13.85L104.24 13.85Q103.98 13.99 103.70 13.99L103.70 13.99L103.70 13.99Q103.42 13.99 103.13 13.88L103.13 13.88L103.13 13.88Q102.84 13.78 102.61 13.56L102.61 13.56L102.61 13.56Q102.38 13.34 102.22 13.01L102.22 13.01L102.22 13.01Q102.06 12.68 102.05 12.24L102.05 12.24L102.05 12.24Q101.99 11.12 101.96 10.01L101.96 10.01L101.96 10.01Q101.93 8.90 101.93 8.01L101.93 8.01L101.93 8.01Q101.57 7.98 101.33 7.95L101.33 7.95L101.33 7.95Q101.08 7.91 100.91 7.88L100.91 7.88L100.91 7.88Q100.72 7.85 100.59 7.83L100.59 7.83L100.59 7.83Q100.79 7.74 101.01 7.64L101.01 7.64L101.01 7.64Q101.19 7.56 101.42 7.45L101.42 7.45L101.42 7.45Q101.64 7.34 101.85 7.18L101.85 7.18L101.85 7.18Q101.89 6.75 101.89 6.40L101.89 6.40L101.89 6.40Q101.88 6.05 101.79 5.73ZM109.12 5.24L109.12 5.24L109.12 5.24Q108.93 5.38 108.75 5.53L108.75 5.53L108.75 5.53Q108.60 5.67 108.41 5.85L108.41 5.85L108.41 5.85Q108.22 6.03 108.07 6.23L108.07 6.23L108.07 6.23Q107.91 5.98 107.74 5.80L107.74 5.80L107.74 5.80Q107.58 5.61 107.42 5.49L107.42 5.49L107.42 5.49Q107.25 5.33 107.09 5.24L107.09 5.24L107.09 5.24Q107.27 5.10 107.44 4.94L107.44 4.94L107.44 4.94Q107.59 4.80 107.76 4.62L107.76 4.62L107.76 4.62Q107.93 4.44 108.07 4.23L108.07 4.23L108.07 4.23Q108.22 4.47 108.40 4.65L108.40 4.65L108.40 4.65Q108.58 4.84 108.74 4.97L108.74 4.97L108.74 4.97Q108.92 5.12 109.12 5.24ZM106.86 8.12L106.86 8.12L106.86 8.12Q107.20 7.98 107.50 7.88L107.50 7.88L107.50 7.88Q107.80 7.77 108.07 7.65L108.07 7.65L108.07 7.65Q108.35 7.53 108.61 7.38L108.61 7.38L108.61 7.38Q108.86 7.24 109.12 7.01L109.12 7.01L109.12 7.01Q109.23 7.39 109.21 7.93L109.21 7.93L109.21 7.93Q109.20 8.47 109.15 9.06L109.15 9.06L109.15 9.06Q109.10 9.66 109.09 10.26L109.09 10.26L109.09 10.26Q109.07 10.86 109.19 11.35L109.19 11.35L109.19 11.35Q109.31 11.84 109.61 12.17L109.61 12.17L109.61 12.17Q109.91 12.50 110.52 12.56L110.52 12.56L110.52 12.56Q109.91 12.95 109.49 13.30L109.49 13.30L109.49 13.30Q109.06 13.65 108.64 14.01L108.64 14.01L108.64 14.01Q108.51 13.96 108.36 13.89L108.36 13.89L108.36 13.89Q108.21 13.82 108.07 13.69L108.07 13.69L108.07 13.69Q107.93 13.55 107.82 13.35L107.82 13.35L107.82 13.35Q107.72 13.15 107.70 12.82L107.70 12.82L107.70 12.82Q107.72 11.87 107.74 11.01L107.74 11.01L107.74 11.01Q107.77 10.15 107.72 9.50L107.72 9.50L107.72 9.50Q107.66 8.85 107.47 8.48L107.47 8.48L107.47 8.48Q107.28 8.11 106.86 8.12ZM113.13 9.66L113.13 9.66L113.13 9.66Q113.13 10.08 113.30 10.59L113.30 10.59L113.30 10.59Q113.46 11.10 113.83 11.54L113.83 11.54L113.83 11.54Q114.21 11.98 114.82 12.29L114.82 12.29L114.82 12.29Q115.43 12.59 116.31 12.59L116.31 12.59L116.31 12.59Q116.77 12.59 117.04 12.46L117.04 12.46L117.04 12.46Q117.31 12.33 117.43 12.14L117.43 12.14L117.43 12.14Q117.56 11.96 117.59 11.75L117.59 11.75L117.59 11.75Q117.63 11.54 117.63 11.35L117.63 11.35L117.63 11.35Q117.63 10.75 117.40 10.16L117.40 10.16L117.40 10.16Q117.17 9.58 116.76 9.11L116.76 9.11L116.76 9.11Q116.35 8.65 115.80 8.37L115.80 8.37L115.80 8.37Q115.25 8.09 114.60 8.09L114.60 8.09L114.60 8.09Q114.18 8.09 113.90 8.25L113.90 8.25L113.90 8.25Q113.62 8.41 113.45 8.66L113.45 8.66L113.45 8.66Q113.27 8.90 113.20 9.18L113.20 9.18L113.20 9.18Q113.13 9.45 113.13 9.66ZM116.21 7L116.21 7L116.21 7Q116.63 7 117.12 7.18L117.12 7.18L117.12 7.18Q117.60 7.36 118.01 7.73L118.01 7.73L118.01 7.73Q118.43 8.09 118.69 8.66L118.69 8.66L118.69 8.66Q118.96 9.23 118.96 9.98L118.96 9.98L118.96 9.98Q118.96 10.42 118.76 10.88L118.76 10.88L118.76 10.88Q118.55 11.34 118.22 11.79L118.22 11.79L118.22 11.79Q117.89 12.24 117.47 12.63L117.47 12.63L117.47 12.63Q117.04 13.03 116.59 13.34L116.59 13.34L116.59 13.34Q116.13 13.64 115.68 13.82L115.68 13.82L115.68 13.82Q115.22 14 114.84 14L114.84 14L114.84 14Q114.27 14 113.74 13.76L113.74 13.76L113.74 13.76Q113.22 13.52 112.81 13.12L112.81 13.12L112.81 13.12Q112.41 12.71 112.16 12.19L112.16 12.19L112.16 12.19Q111.92 11.66 111.92 11.07L111.92 11.07L111.92 11.07Q111.92 10.28 112.35 9.54L112.35 9.54L112.35 9.54Q112.78 8.81 113.43 8.24L113.43 8.24L113.43 8.24Q114.07 7.67 114.82 7.34L114.82 7.34L114.82 7.34Q115.57 7 116.21 7ZM127.76 10.01L127.76 10.01L127.76 10.01Q127.76 11.00 127.44 11.75L127.44 11.75L127.44 11.75Q127.11 12.50 126.71 13.01L126.71 13.01L126.71 13.01Q126.25 13.59 125.66 14.01L125.66 14.01L125.66 14.01Q125.89 13.66 126.07 13.24L126.07 13.24L126.07 13.24Q126.22 12.88 126.35 12.42L126.35 12.42L126.35 12.42Q126.48 11.96 126.48 11.44L126.48 11.44L126.48 11.44Q126.48 10.81 126.22 10.22L126.22 10.22L126.22 10.22Q125.97 9.63 125.55 9.18L125.55 9.18L125.55 9.18Q125.13 8.72 124.58 8.44L124.58 8.44L124.58 8.44Q124.03 8.16 123.42 8.16L123.42 8.16L123.42 8.16Q123.13 8.16 122.85 8.23L122.85 8.23L122.85 8.23Q122.57 8.30 122.39 8.48L122.39 8.48L122.39 8.48Q122.39 8.78 122.37 9.27L122.37 9.27L122.37 9.27Q122.35 9.77 122.35 10.42L122.35 10.42L122.35 10.42Q122.35 11.06 122.38 11.82L122.38 11.82L122.38 11.82Q122.42 12.57 122.54 13.38L122.54 13.38L122.54 13.38Q122.05 13.38 121.57 13.58L121.57 13.58L121.57 13.58Q121.09 13.78 120.79 14.01L120.79 14.01L120.79 14.01Q120.81 13.75 120.83 13.24L120.83 13.24L120.83 13.24Q120.86 12.73 120.88 12.10L120.88 12.10L120.88 12.10Q120.89 11.48 120.88 10.82L120.88 10.82L120.88 10.82Q120.88 10.16 120.82 9.61L120.82 9.61L120.82 9.61Q120.76 9.06 120.66 8.68L120.66 8.68L120.66 8.68Q120.55 8.30 120.37 8.25L120.37 8.25L120.37 8.25Q120.13 8.15 119.90 8.15L119.90 8.15L119.90 8.15Q119.77 8.15 119.66 8.16L119.66 8.16L119.66 8.16Q120.13 7.85 120.57 7.60L120.57 7.60L120.57 7.60Q120.93 7.39 121.31 7.22L121.31 7.22L121.31 7.22Q121.69 7.04 121.90 7.04L121.90 7.04L121.90 7.04Q122.08 7.04 122.18 7.07L122.18 7.07L122.18 7.07Q122.28 7.10 122.33 7.21L122.33 7.21L122.33 7.21Q122.37 7.32 122.38 7.55L122.38 7.55L122.38 7.55Q122.39 7.77 122.39 8.16L122.39 8.16L122.39 8.16Q122.99 7.62 123.67 7.33L123.67 7.33L123.67 7.33Q124.35 7.04 124.95 7.04L124.95 7.04L124.95 7.04Q125.58 7.04 126.10 7.29L126.10 7.29L126.10 7.29Q126.62 7.55 126.99 7.96L126.99 7.96L126.99 7.96Q127.36 8.37 127.56 8.90L127.56 8.90L127.56 8.90Q127.76 9.44 127.76 10.01Z"></path></g><!----><g data-v-423bf9ae="" id="43fe68b0-1a88-43e0-a208-8660f36f45d2" transform="matrix(2.8125,0,0,2.8125,0,0)" stroke="none" fill="black"><path d="M0 32h32V0H0v32zM2 2h2.981L16.01 21.103 27.04 2H30v28H2V2z"></path></g><!----><g data-v-423bf9ae="" id="464f1fac-4edb-4b11-8c79-41788432301a" fill="black" transform="matrix(0.6921590897741918,0,0,0.6921590897741918,109.18325372860163,56.068536520913604)"><path d="M1.18 6.97L1.18 5.88L7.39 5.88L7.39 6.97L4.87 6.97L4.87 14.59L7.39 14.59L7.39 15.68L1.18 15.68L1.18 14.59L3.70 14.59L3.70 6.97L1.18 6.97ZM18.94 5.88L21.77 15.18L21.94 15.18L21.94 5.88L23.11 5.88L23.11 15.68L20.76 15.68L17.93 6.38L17.77 6.38L17.77 15.68L16.59 15.68L16.59 5.88L18.94 5.88ZM34.29 15.68L31.51 5.88L32.77 5.88L35.34 15.18L35.50 15.18L38.07 5.88L39.33 5.88L36.55 15.68L34.29 15.68ZM47.88 6.97L47.88 5.88L54.10 5.88L54.10 6.97L51.58 6.97L51.58 14.59L54.10 14.59L54.10 15.68L47.88 15.68L47.88 14.59L50.40 14.59L50.40 6.97L47.88 6.97ZM63.11 6.97L63.11 5.88L70 5.88L70 6.97L67.14 6.97L67.14 15.68L65.97 15.68L65.97 6.97L63.11 6.97ZM79.16 15.68L79.16 5.88L85.09 5.88L85.09 6.97L80.33 6.97L80.33 10.22L85.01 10.22L85.01 11.31L80.33 11.31L80.33 14.59L85.18 14.59L85.18 15.68L79.16 15.68ZM113.67 11.65L111.34 11.65L111.34 15.68L110.17 15.68L110.17 5.88L113.67 5.88L113.67 5.88Q114.42 5.88 114.98 6.10L114.98 6.10L114.98 6.10Q115.54 6.31 115.91 6.68L115.91 6.68L115.91 6.68Q116.28 7.04 116.47 7.53L116.47 7.53L116.47 7.53Q116.66 8.01 116.66 8.54L116.66 8.54L116.66 8.96L116.66 8.96Q116.66 9.49 116.47 9.98L116.47 9.98L116.47 9.98Q116.28 10.47 115.91 10.84L115.91 10.84L115.91 10.84Q115.53 11.21 114.97 11.43L114.97 11.43L114.97 11.43Q114.41 11.65 113.67 11.65L113.67 11.65ZM111.34 6.97L111.34 10.56L113.53 10.56L113.53 10.56Q115.49 10.56 115.49 8.88L115.49 8.88L115.49 8.62L115.49 8.62Q115.49 7.88 115.00 7.43L115.00 7.43L115.00 7.43Q114.52 6.97 113.53 6.97L113.53 6.97L111.34 6.97ZM125.86 15.68L125.86 5.88L131.80 5.88L131.80 6.97L127.04 6.97L127.04 10.22L131.71 10.22L131.71 11.31L127.04 11.31L127.04 14.59L131.88 14.59L131.88 15.68L125.86 15.68ZM140.95 11.87L140.95 9.69L140.95 9.69Q140.95 7.78 141.86 6.73L141.86 6.73L141.86 6.73Q142.77 5.68 144.40 5.68L144.40 5.68L144.40 5.68Q146.02 5.68 146.93 6.73L146.93 6.73L146.93 6.73Q147.84 7.78 147.84 9.69L147.84 9.69L147.84 11.87L147.84 11.87Q147.84 13.83 146.93 14.85L146.93 14.85L146.93 14.85Q146.02 15.88 144.40 15.88L144.40 15.88L144.40 15.88Q142.77 15.88 141.86 14.85L141.86 14.85L141.86 14.85Q140.95 13.83 140.95 11.87L140.95 11.87ZM144.40 14.78L144.40 14.78L144.40 14.78Q145.53 14.78 146.10 14.01L146.10 14.01L146.10 14.01Q146.66 13.23 146.66 11.79L146.66 11.79L146.66 9.77L146.66 9.77Q146.66 8.43 146.10 7.60L146.10 7.60L146.10 7.60Q145.53 6.78 144.40 6.78L144.40 6.78L144.40 6.78Q143.26 6.78 142.69 7.60L142.69 7.60L142.69 7.60Q142.13 8.43 142.13 9.77L142.13 9.77L142.13 11.79L142.13 11.79Q142.13 13.23 142.69 14.01L142.69 14.01L142.69 14.01Q143.26 14.78 144.40 14.78ZM160.37 11.65L158.05 11.65L158.05 15.68L156.87 15.68L156.87 5.88L160.37 5.88L160.37 5.88Q161.13 5.88 161.69 6.10L161.69 6.10L161.69 6.10Q162.25 6.31 162.62 6.68L162.62 6.68L162.62 6.68Q162.99 7.04 163.18 7.53L163.18 7.53L163.18 7.53Q163.37 8.01 163.37 8.54L163.37 8.54L163.37 8.96L163.37 8.96Q163.37 9.49 163.18 9.98L163.18 9.98L163.18 9.98Q162.99 10.47 162.61 10.84L162.61 10.84L162.61 10.84Q162.23 11.21 161.67 11.43L161.67 11.43L161.67 11.43Q161.11 11.65 160.37 11.65L160.37 11.65ZM158.05 6.97L158.05 10.56L160.23 10.56L160.23 10.56Q162.19 10.56 162.19 8.88L162.19 8.88L162.19 8.62L162.19 8.62Q162.19 7.88 161.71 7.43L161.71 7.43L161.71 7.43Q161.22 6.97 160.23 6.97L160.23 6.97L158.05 6.97ZM172.47 15.68L172.47 5.88L173.64 5.88L173.64 14.59L178.77 14.59L178.77 15.68L172.47 15.68ZM188.13 15.68L188.13 5.88L194.07 5.88L194.07 6.97L189.31 6.97L189.31 10.22L193.98 10.22L193.98 11.31L189.31 11.31L189.31 14.59L194.15 14.59L194.15 15.68L188.13 15.68ZM221.65 15.68L221.65 12.24L221.40 12.24L218.33 5.88L219.65 5.88L222.15 11.23L222.32 11.23L224.83 5.88L226.14 5.88L223.08 12.24L222.82 12.24L222.82 15.68L221.65 15.68ZM234.36 11.87L234.36 9.69L234.36 9.69Q234.36 7.78 235.27 6.73L235.27 6.73L235.27 6.73Q236.18 5.68 237.80 5.68L237.80 5.68L237.80 5.68Q239.43 5.68 240.34 6.73L240.34 6.73L240.34 6.73Q241.25 7.78 241.25 9.69L241.25 9.69L241.25 11.87L241.25 11.87Q241.25 13.83 240.34 14.85L240.34 14.85L240.34 14.85Q239.43 15.88 237.80 15.88L237.80 15.88L237.80 15.88Q236.18 15.88 235.27 14.85L235.27 14.85L235.27 14.85Q234.36 13.83 234.36 11.87L234.36 11.87ZM237.80 14.78L237.80 14.78L237.80 14.78Q238.94 14.78 239.51 14.01L239.51 14.01L239.51 14.01Q240.07 13.23 240.07 11.79L240.07 11.79L240.07 9.77L240.07 9.77Q240.07 8.43 239.51 7.60L239.51 7.60L239.51 7.60Q238.94 6.78 237.80 6.78L237.80 6.78L237.80 6.78Q236.67 6.78 236.10 7.60L236.10 7.60L236.10 7.60Q235.54 8.43 235.54 9.77L235.54 9.77L235.54 11.79L235.54 11.79Q235.54 13.23 236.10 14.01L236.10 14.01L236.10 14.01Q236.67 14.78 237.80 14.78ZM250.01 5.88L251.19 5.88L251.19 12.38L251.19 12.38Q251.19 13.57 251.74 14.17L251.74 14.17L251.74 14.17Q252.29 14.78 253.37 14.78L253.37 14.78L253.37 14.78Q254.45 14.78 255.00 14.17L255.00 14.17L255.00 14.17Q255.56 13.57 255.56 12.38L255.56 12.38L255.56 5.88L256.73 5.88L256.73 12.38L256.73 12.38Q256.73 14.08 255.84 14.98L255.84 14.98L255.84 14.98Q254.94 15.88 253.37 15.88L253.37 15.88L253.37 15.88Q251.80 15.88 250.91 14.98L250.91 14.98L250.91 14.98Q250.01 14.08 250.01 12.38L250.01 12.38L250.01 5.88ZM281.44 15.68L281.44 5.88L282.62 5.88L282.62 14.59L287.74 14.59L287.74 15.68L281.44 15.68ZM296.63 11.87L296.63 9.69L296.63 9.69Q296.63 7.78 297.54 6.73L297.54 6.73L297.54 6.73Q298.45 5.68 300.08 5.68L300.08 5.68L300.08 5.68Q301.70 5.68 302.61 6.73L302.61 6.73L302.61 6.73Q303.52 7.78 303.52 9.69L303.52 9.69L303.52 11.87L303.52 11.87Q303.52 13.83 302.61 14.85L302.61 14.85L302.61 14.85Q301.70 15.88 300.08 15.88L300.08 15.88L300.08 15.88Q298.45 15.88 297.54 14.85L297.54 14.85L297.54 14.85Q296.63 13.83 296.63 11.87L296.63 11.87ZM300.08 14.78L300.08 14.78L300.08 14.78Q301.21 14.78 301.78 14.01L301.78 14.01L301.78 14.01Q302.34 13.23 302.34 11.79L302.34 11.79L302.34 9.77L302.34 9.77Q302.34 8.43 301.78 7.60L301.78 7.60L301.78 7.60Q301.21 6.78 300.08 6.78L300.08 6.78L300.08 6.78Q298.94 6.78 298.38 7.60L298.38 7.60L298.38 7.60Q297.81 8.43 297.81 9.77L297.81 9.77L297.81 11.79L297.81 11.79Q297.81 13.23 298.38 14.01L298.38 14.01L298.38 14.01Q298.94 14.78 300.08 14.78ZM314.51 15.68L311.74 5.88L313.00 5.88L315.56 15.18L315.73 15.18L318.29 5.88L319.55 5.88L316.78 15.68L314.51 15.68ZM328.24 15.68L328.24 5.88L334.18 5.88L334.18 6.97L329.42 6.97L329.42 10.22L334.10 10.22L334.10 11.31L329.42 11.31L329.42 14.59L334.26 14.59L334.26 15.68L328.24 15.68Z"></path></g></svg>